<svg id="add_fill" xmlns="http://www.w3.org/2000/svg" width="24" height="24" viewBox="0 0 24 24">
  <path id="Path_17436" data-name="Path 17436" d="M24,0V24H0V0ZM12.593,23.258l-.011,0-.071.035-.02,0-.014,0-.071-.035a.02.02,0,0,0-.024,0l0,.01-.017.428.005.02.01.013.1.074.015,0,.012,0,.1-.074.012-.016,0-.017-.017-.427A.021.021,0,0,0,12.593,23.258Zm.265-.113-.013,0-.185.093-.01.01,0,.011.018.43.005.012.008.007.2.093a.025.025,0,0,0,.029-.008l0-.014-.034-.614a.027.027,0,0,0-.02-.022Zm-.715,0a.023.023,0,0,0-.027.006l-.006.014-.034.614a.025.025,0,0,0,.017.024l.015,0,.2-.093.01-.008,0-.011.017-.43,0-.012-.01-.01-.184-.092Z" fill="none"/>
  <path id="Path_17437" data-name="Path 17437" d="M10.5,20a1.5,1.5,0,0,0,3,0V13.5H20a1.5,1.5,0,0,0,0-3H13.5V4a1.5,1.5,0,1,0-3,0v6.5H4a1.5,1.5,0,0,0,0,3h6.5Z" fill="#25a7ff"/>
</svg>
