<svg xmlns="http://www.w3.org/2000/svg" width="19.654" height="16.459" viewBox="0 0 19.654 16.459">
  <path id="deactivate-user-svgrepo-com" d="M7.127,156a3.842,3.842,0,0,1,3.838,3.838v1.1a3.815,3.815,0,0,1-1.348,2.9c.594.071,1.186.161,1.773.284a3.776,3.776,0,0,1,2.864,3.763v2.106l-.224.164a11.828,11.828,0,0,1-6.911,2.311c-.173,0-.348,0-.524-.012a11.677,11.677,0,0,1-6.373-2.3L0,169.982v-2.106a3.776,3.776,0,0,1,2.866-3.763c.583-.122,1.173-.216,1.765-.288a3.807,3.807,0,0,1-1.342-2.89v-1.1A3.842,3.842,0,0,1,7.127,156Zm-.91,3.289c-.971,0-1.162.716-1.831.987v.658a2.741,2.741,0,1,0,5.482,0v-1.1c0-.025-.007-.049-.008-.076l-.02.018-.019.018-.01.009-.019.018-.019.018-.019.018-.01.009-.019.018a1.521,1.521,0,0,1-1.128.5c-1.2,0-1.2-1.1-2.379-1.1ZM18.835,156l.82.82-2.05,2.05,2.05,2.05-.82.82-2.05-2.05-2.049,2.05-.821-.82,2.05-2.05-2.05-2.05.821-.82,2.049,2.05Z" transform="translate(0 -156)" fill="#323232" fill-rule="evenodd"/>
</svg>
