<svg xmlns="http://www.w3.org/2000/svg" width="63.133" height="71.721" viewBox="0 0 63.133 71.721">
  <g id="document-svgrepo-com" transform="translate(-81.898 -19.873)">
    <path id="Path_17426" data-name="Path 17426" d="M852.938,19.873h-.252a3.45,3.45,0,0,0-3.451,3.45v64.82a3.45,3.45,0,0,0,3.451,3.451h.252a3.45,3.45,0,0,0,3.451-3.451V23.323A3.45,3.45,0,0,0,852.938,19.873Z" transform="translate(-711.357)" fill="#4a5699"/>
    <path id="Path_17427" data-name="Path 17427" d="M85.6,19.873h-.252a3.45,3.45,0,0,0-3.45,3.45v64.82a3.45,3.45,0,0,0,3.45,3.451H85.6a3.45,3.45,0,0,0,3.451-3.451V23.323A3.45,3.45,0,0,0,85.6,19.873Z" fill="#c45fa0"/>
    <path id="Path_17428" data-name="Path 17428" d="M141.543,19.873H85.348a3.45,3.45,0,0,0-3.45,3.45v.246a3.451,3.451,0,0,0,3.45,3.451h56.194a3.451,3.451,0,0,0,3.45-3.451v-.246A3.45,3.45,0,0,0,141.543,19.873Z" transform="translate(0 0)" fill="#6277ba"/>
    <path id="Path_17429" data-name="Path 17429" d="M141.543,905.006H85.348a3.45,3.45,0,0,0-3.45,3.45v.247a3.45,3.45,0,0,0,3.45,3.451h56.194a3.45,3.45,0,0,0,3.45-3.451v-.247A3.45,3.45,0,0,0,141.543,905.006Z" transform="translate(0 -820.559)" fill="#c45fa0"/>
    <path id="Path_17430" data-name="Path 17430" d="M511.033,543.153H498.2a3.451,3.451,0,0,0-3.451,3.451v.272a3.45,3.45,0,0,0,3.451,3.45h12.834a3.45,3.45,0,0,0,3.45-3.45V546.6A3.45,3.45,0,0,0,511.033,543.153Z" transform="translate(-382.732 -485.105)" fill="#e5594f"/>
    <path id="Path_17431" data-name="Path 17431" d="M482.341,198.849H469.508a3.451,3.451,0,0,0-3.451,3.451v.272a3.451,3.451,0,0,0,3.451,3.451h12.833a3.451,3.451,0,0,0,3.451-3.451V202.3A3.45,3.45,0,0,0,482.341,198.849Z" transform="translate(-356.133 -165.919)" fill="#f0d043"/>
    <path id="Path_17432" data-name="Path 17432" d="M253.554,353.081h-36.23a3.45,3.45,0,0,0-3.451,3.45v.246a3.451,3.451,0,0,0,3.451,3.451h36.23a3.451,3.451,0,0,0,3.45-3.451v-.246A3.45,3.45,0,0,0,253.554,353.081Z" transform="translate(-122.347 -308.899)" fill="#e5594f"/>
    <path id="Path_17433" data-name="Path 17433" d="M258.4,726.225h-36.23a3.451,3.451,0,0,0-3.45,3.451v.246a3.451,3.451,0,0,0,3.45,3.451H258.4a3.451,3.451,0,0,0,3.45-3.451v-.246A3.451,3.451,0,0,0,258.4,726.225Z" transform="translate(-126.844 -654.821)" fill="#6277ba"/>
    <path id="Path_17434" data-name="Path 17434" d="M242.986,543.328h-5.422a3.45,3.45,0,0,0-3.451,3.45v.246a3.451,3.451,0,0,0,3.451,3.451h5.422a3.45,3.45,0,0,0,3.45-3.451v-.246A3.45,3.45,0,0,0,242.986,543.328Z" transform="translate(-141.11 -485.267)" fill="#f39a2b"/>
    <path id="Path_17435" data-name="Path 17435" d="M289.438,202.594m-3.574,0a3.574,3.574,0,1,0,3.574-3.574A3.574,3.574,0,0,0,285.864,202.594Z" transform="translate(-189.086 -166.078)" fill="#f39a2b"/>
  </g>
</svg>
