<svg xmlns="http://www.w3.org/2000/svg" width="87.533" height="99.44" viewBox="0 0 87.533 99.44">
  <g id="document-svgrepo-com" transform="translate(-81.898 -19.873)">
    <path id="Path_17426" data-name="Path 17426" d="M854.369,19.873h-.349a4.784,4.784,0,0,0-4.784,4.784v89.872a4.784,4.784,0,0,0,4.784,4.784h.349a4.784,4.784,0,0,0,4.784-4.784V24.657A4.784,4.784,0,0,0,854.369,19.873Z" transform="translate(-689.722)" fill="#4a5699"/>
    <path id="Path_17427" data-name="Path 17427" d="M87.031,19.873h-.349A4.784,4.784,0,0,0,81.9,24.657v89.872a4.784,4.784,0,0,0,4.784,4.784h.349a4.784,4.784,0,0,0,4.784-4.784V24.657A4.784,4.784,0,0,0,87.031,19.873Z" fill="#c45fa0"/>
    <path id="Path_17428" data-name="Path 17428" d="M164.594,19.873H86.682A4.784,4.784,0,0,0,81.9,24.657V25a4.784,4.784,0,0,0,4.784,4.784h77.912A4.784,4.784,0,0,0,169.378,25v-.342A4.784,4.784,0,0,0,164.594,19.873Z" transform="translate(0 0)" fill="#6277ba"/>
    <path id="Path_17429" data-name="Path 17429" d="M164.594,905.006H86.682a4.784,4.784,0,0,0-4.784,4.783v.342a4.784,4.784,0,0,0,4.784,4.784h77.912a4.784,4.784,0,0,0,4.784-4.784v-.342A4.783,4.783,0,0,0,164.594,905.006Z" transform="translate(0 -795.602)" fill="#c45fa0"/>
    <path id="Path_17430" data-name="Path 17430" d="M517.327,543.153H499.533a4.784,4.784,0,0,0-4.784,4.784v.377a4.784,4.784,0,0,0,4.784,4.784h17.794a4.784,4.784,0,0,0,4.784-4.784v-.377A4.784,4.784,0,0,0,517.327,543.153Z" transform="translate(-371.091 -470.35)" fill="#e5594f"/>
    <path id="Path_17431" data-name="Path 17431" d="M488.635,198.849H470.841a4.784,4.784,0,0,0-4.784,4.784v.376a4.784,4.784,0,0,0,4.784,4.784h17.793a4.784,4.784,0,0,0,4.784-4.784v-.376A4.784,4.784,0,0,0,488.635,198.849Z" transform="translate(-345.301 -160.873)" fill="#f0d043"/>
    <path id="Path_17432" data-name="Path 17432" d="M268.89,353.081H218.657a4.784,4.784,0,0,0-4.784,4.784v.342a4.784,4.784,0,0,0,4.784,4.784H268.89a4.784,4.784,0,0,0,4.784-4.784v-.342A4.784,4.784,0,0,0,268.89,353.081Z" transform="translate(-118.626 -299.504)" fill="#e5594f"/>
    <path id="Path_17433" data-name="Path 17433" d="M273.741,726.225H223.508a4.784,4.784,0,0,0-4.784,4.784v.342a4.784,4.784,0,0,0,4.784,4.784h50.233a4.784,4.784,0,0,0,4.784-4.784v-.342A4.784,4.784,0,0,0,273.741,726.225Z" transform="translate(-122.986 -634.905)" fill="#6277ba"/>
    <path id="Path_17434" data-name="Path 17434" d="M246.415,543.328H238.9a4.784,4.784,0,0,0-4.784,4.784v.342a4.784,4.784,0,0,0,4.784,4.784h7.518a4.784,4.784,0,0,0,4.784-4.784v-.342A4.783,4.783,0,0,0,246.415,543.328Z" transform="translate(-136.819 -470.508)" fill="#f39a2b"/>
    <path id="Path_17435" data-name="Path 17435" d="M290.819,203.975m-4.955,0a4.955,4.955,0,1,0,4.955-4.955A4.955,4.955,0,0,0,285.864,203.975Z" transform="translate(-183.335 -161.026)" fill="#f39a2b"/>
  </g>
</svg>
