<svg xmlns="http://www.w3.org/2000/svg" width="239" height="239" viewBox="0 0 239 239">
  <g id="Group_110611" data-name="Group 110611" transform="translate(-709 -163)">
    <g id="Group_110610" data-name="Group 110610" transform="translate(22 19)">
      <g id="Group_110601" data-name="Group 110601">
        <g id="Group_109848" data-name="Group 109848" transform="translate(-84 -2552)">
          <g id="Ellipse_92" data-name="Ellipse 92" transform="translate(771 2696)" fill="#fff" stroke="#e6e6e6" stroke-width="1">
            <circle cx="119.5" cy="119.5" r="119.5" stroke="none"/>
            <circle cx="119.5" cy="119.5" r="119" fill="none"/>
          </g>
        </g>
      </g>
    </g>
    <g id="_2mpnXR1u0t3fBknDZNOvAiD1hUo" data-name="2mpnXR1u0t3fBknDZNOvAiD1hUo" transform="translate(433 -9)">
      <path id="Path_17506" data-name="Path 17506" d="M0,0H29.229l.09,13.718-.09.09-13.807.09V64.643l-.09.09H0Z" transform="translate(396.885 259)" fill="#5a5a5b"/>
      <path id="Path_17507" data-name="Path 17507" d="M-142.013,0l2.241.448,2.779.807,2.421.9,2.51,1.166,2.241,1.255,1.972,1.345,1.166.9,1.166.986,1.076.986,1.435,1.435.807.986.9,1.076,1.255,1.793,1.255,2.152.717,1.435.807,1.793.717,2.062.628,2.241.448,2.152.359,2.959.09,1.883v1.7l-.09,2.062-.269,2.331-.538,2.779-.628,2.241-.628,1.793-.9,2.062-.9,1.793-1.076,1.793-1.076,1.524-.9,1.166-1.076,1.255-.807.807-.09.179h-.179l-.09.269-.717.628-1.166,1.076-1.524,1.166-1.255.9-1.883,1.166-2.421,1.255-2.062.9-2.51.9-2.331.628-2.779.538-1.883.269-2.152.179h-8.966l-.09-.09V51.374l.09-.09,7.89-.09,2.331-.269,2.421-.538,2.062-.717,1.883-.9,1.435-.9,1.076-.807,1.255-1.076.717-.717.986-1.255.807-1.166.807-1.435.628-1.345.628-1.793.538-2.241.269-2.062V29.766l-.269-2.062-.448-1.972-.717-2.152-.986-2.062-.9-1.435-.9-1.166-.986-1.076-.986-.986-1.524-1.166-1.793-1.076-1.7-.807-.717-.359V.09Z" transform="translate(575.12 259.628)" fill="#38b0a8"/>
      <path id="Path_17508" data-name="Path 17508" d="M0,0H15.332l.09.09V64.733H0Z" transform="translate(374.56 259)" fill="#6f7071"/>
      <path id="Path_17509" data-name="Path 17509" d="M-.91,0H14.332l.09.09V64.733H-1V.09Z" transform="translate(353.235 259)" fill="#838485"/>
      <path id="Path_17510" data-name="Path 17510" d="M0,0H15.332V64.733H0Z" transform="translate(330 259)" fill="#939697"/>
    </g>
  </g>
</svg>
