<svg xmlns="http://www.w3.org/2000/svg" width="39.7" height="39.7" viewBox="0 0 39.7 39.7">
  <path id="instagram-svgrepo-com" d="M33.834,10.26h0a2.381,2.381,0,1,1-2.381-2.381h0a2.383,2.383,0,0,1,2.381,2.38ZM20.855,27.472a6.617,6.617,0,1,1,6.617-6.617h0a6.614,6.614,0,0,1-6.615,6.615h0Zm0-16.81h0A10.193,10.193,0,1,0,31.047,20.855h0A10.193,10.193,0,0,0,20.855,10.661h0Zm0-6.084c5.3,0,5.93.026,8.023.118a10.9,10.9,0,0,1,3.759.712l-.075-.025a6.571,6.571,0,0,1,3.753,3.722l.016.045a10.744,10.744,0,0,1,.683,3.677v.007c.094,2.094.115,2.723.115,8.023s-.025,5.93-.122,8.023a11.164,11.164,0,0,1-.721,3.761l.025-.077a6.335,6.335,0,0,1-1.487,2.285h0a6.2,6.2,0,0,1-2.24,1.468l-.042.015a10.814,10.814,0,0,1-3.691.683h-.007c-2.107.094-2.728.115-8.038.115s-5.932-.025-8.038-.122a11.256,11.256,0,0,1-3.777-.721l.078.025A6.165,6.165,0,0,1,6.79,34.828h0a6.039,6.039,0,0,1-1.475-2.241L5.3,32.545a11.051,11.051,0,0,1-.695-3.687v-.011c-.074-2.085-.1-2.728-.1-8.013s.026-5.932.1-8.042a11.232,11.232,0,0,1,.72-3.773L5.3,9.1A5.912,5.912,0,0,1,6.787,6.817l0,0A5.886,5.886,0,0,1,9.03,5.342l.041-.013a10.763,10.763,0,0,1,3.664-.7h.009c2.109-.074,2.73-.1,8.038-.1Zm0-3.574c-5.393,0-6.065.025-8.183.119a14.6,14.6,0,0,0-4.919.957l.1-.033A9.779,9.779,0,0,0,4.337,4.335h0A9.7,9.7,0,0,0,2.068,7.787l-.023.066a14.287,14.287,0,0,0-.923,4.8v.016C1.024,14.789,1,15.462,1,20.855s.025,6.065.119,8.183a14.6,14.6,0,0,0,.957,4.919l-.033-.1a10.2,10.2,0,0,0,5.737,5.782l.069.024a14.352,14.352,0,0,0,4.8.923h.016c2.118.1,2.79.119,8.183.119s6.065-.025,8.183-.119a14.636,14.636,0,0,0,4.919-.957l-.1.034a10.2,10.2,0,0,0,5.782-5.737l.024-.069a14.32,14.32,0,0,0,.923-4.8v-.016c.1-2.118.119-2.79.119-8.183s-.025-6.065-.119-8.183a14.636,14.636,0,0,0-.957-4.919l.034.1a9.782,9.782,0,0,0-2.289-3.516h0a9.7,9.7,0,0,0-3.451-2.268l-.066-.023a14.287,14.287,0,0,0-4.8-.923h-.016C26.919,1.024,26.246,1,20.853,1Z" transform="translate(-1.004 -1.004)" fill="#fff" opacity="0.34"/>
</svg>
