<svg xmlns="http://www.w3.org/2000/svg" width="43" height="43" viewBox="0 0 43 43">
  <g id="linkedin-1-svgrepo-com" transform="translate(-1.5 -1.5)" opacity="0.25">
    <rect id="Rectangle_20465" data-name="Rectangle 20465" width="42" height="42" rx="14" transform="translate(2 2)" fill="none" stroke="#fff" stroke-width="1"/>
    <path id="Path_259" data-name="Path 259" d="M14.389,10.52a2.612,2.612,0,0,1-2.695,2.52A2.612,2.612,0,0,1,9,10.52,2.612,2.612,0,0,1,11.695,8,2.612,2.612,0,0,1,14.389,10.52Z" transform="translate(3.425 2.936)" fill="#fff"/>
    <path id="Path_260" data-name="Path 260" d="M9.247,12.628h4.606V26.586H9.247Z" transform="translate(3.546 5.2)" fill="#fff"/>
    <path id="Path_261" data-name="Path 261" d="M18.833,12.72H14.227V26.678h4.606V19.536c0-1.649.563-3.305,2.81-3.305,2.539,0,2.524,2.158,2.512,3.83-.015,2.185.021,4.415.021,6.617h4.606V19.311c-.039-4.7-1.265-6.871-5.3-6.871a5.714,5.714,0,0,0-4.652,2.071Z" transform="translate(5.982 5.108)" fill="#fff"/>
  </g>
</svg>
