<svg xmlns="http://www.w3.org/2000/svg" width="61.1" height="71.283" viewBox="0 0 61.1 71.283">
  <g id="rules-svgrepo-com" transform="translate(-128 -64)">
    <path id="Path_17436" data-name="Path 17436" d="M184.008,802.911H133.092S128,802.741,128,789.333h61.1C189.1,802.741,184.008,802.911,184.008,802.911Z" transform="translate(0 -667.628)" fill="#42a5f5"/>
    <path id="Path_17437" data-name="Path 17437" d="M170.667,64h54.311v57.705H170.667Z" transform="translate(-39.273)" fill="#90caf9"/>
    <path id="Path_17438" data-name="Path 17438" d="M384,320h27.155v3.394H384Zm0,6.789h27.155v3.394H384Zm0,6.789h27.155v3.394H384Zm0,6.789h27.155v3.394H384Zm0,6.789h27.155v3.394H384Z" transform="translate(-235.633 -235.633)" fill="#1976d2"/>
    <path id="Path_17439" data-name="Path 17439" d="M298.667,320h3.394v3.394h-3.394Zm0,6.789h3.394v3.394h-3.394Zm0,6.789h3.394v3.394h-3.394Zm0,6.789h3.394v3.394h-3.394Zm0,6.789h3.394v3.394h-3.394Z" transform="translate(-157.089 -235.633)" fill="#1976d2"/>
  </g>
</svg>
