<svg xmlns="http://www.w3.org/2000/svg" width="75.9" height="88.55" viewBox="0 0 75.9 88.55">
  <g id="rules-svgrepo-com" transform="translate(-128 -64)">
    <path id="Path_17436" data-name="Path 17436" d="M197.575,806.2h-63.25S128,805.989,128,789.333h75.9C203.9,805.989,197.575,806.2,197.575,806.2Z" transform="translate(0 -653.65)" fill="#42a5f5"/>
    <path id="Path_17437" data-name="Path 17437" d="M170.667,64h67.467v71.683H170.667Z" transform="translate(-38.45)" fill="#90caf9"/>
    <path id="Path_17438" data-name="Path 17438" d="M384,320h33.733v4.217H384Zm0,8.433h33.733v4.217H384Zm0,8.433h33.733v4.217H384Zm0,8.433h33.733v4.217H384Zm0,8.433h33.733v4.217H384Z" transform="translate(-230.7 -230.7)" fill="#1976d2"/>
    <path id="Path_17439" data-name="Path 17439" d="M298.667,320h4.217v4.217h-4.217Zm0,8.433h4.217v4.217h-4.217Zm0,8.433h4.217v4.217h-4.217Zm0,8.433h4.217v4.217h-4.217Zm0,8.433h4.217v4.217h-4.217Z" transform="translate(-153.8 -230.7)" fill="#1976d2"/>
  </g>
</svg>
