<svg xmlns="http://www.w3.org/2000/svg" xmlns:xlink="http://www.w3.org/1999/xlink" width="1086" height="212" viewBox="0 0 1086 212">
  <defs>
    <clipPath id="clip-path">
      <rect id="Rectangle_21835" data-name="Rectangle 21835" width="194" height="86" transform="translate(128 1361)" fill="#fff" stroke="#707070" stroke-width="1"/>
    </clipPath>
  </defs>
  <g id="Group_110851" data-name="Group 110851" transform="translate(-128 -1360)">
    <line id="Line_407" data-name="Line 407" x2="855" transform="translate(285.5 1446.5)" fill="none" stroke="#0186e0" stroke-width="1" stroke-dasharray="3"/>
    <text id="Registration" transform="translate(191 1507)" fill="#0186e0" font-size="15" font-family="Roboto-Bold, Roboto" font-weight="700"><tspan x="0" y="14">Registration</tspan></text>
    <text id="_4th_Nov_20th_Nov" data-name="4th Nov – 20th Nov" transform="translate(163 1538)" fill="#323232" font-size="15" font-family="Roboto-Regular, Roboto"><tspan x="0" y="14">4</tspan><tspan y="14" font-size="8.75" baseline-shift="4.999500274658203">th</tspan><tspan y="14" xml:space="preserve"> Nov – 20</tspan><tspan y="14" font-size="8.75" baseline-shift="4.999500274658203">th</tspan><tspan y="14" xml:space="preserve"> Nov</tspan></text>
    <text id="_2024" data-name="2024" transform="translate(214 1558)" fill="#323232" font-size="12" font-family="Roboto-Regular, Roboto"><tspan x="0" y="11">2024</tspan></text>
    <g id="Group_110844" data-name="Group 110844">
      <g id="Mask_Group_101" data-name="Mask Group 101" clip-path="url(#clip-path)">
        <circle id="Ellipse_190" data-name="Ellipse 190" cx="74" cy="74" r="74" transform="translate(158 1368)" fill="#e8e8e8"/>
      </g>
      <g id="Group_110838" data-name="Group 110838" transform="translate(3)">
        <circle id="Ellipse_109" data-name="Ellipse 109" cx="55" cy="55" r="55" transform="translate(175 1386)" fill="#0186e0"/>
        <g id="Group_110745" data-name="Group 110745" transform="translate(33 9)">
          <circle id="Ellipse_108" data-name="Ellipse 108" cx="28" cy="28" r="28" transform="translate(169 1404)" fill="#fff"/>
          <path id="Path_184" data-name="Path 184" d="M65.009,49.488a.826.826,0,0,0-.826.826v2.479H47.653V32.959h3.306v.826a.826.826,0,0,0,.826.826H60.05a.826.826,0,0,0,.826-.826v-.826h3.306v.826a.826.826,0,0,0,1.653,0V32.132a.826.826,0,0,0-.826-.826H60.876v-.826A2.479,2.479,0,0,0,58.4,28H53.438a2.479,2.479,0,0,0-2.479,2.479v.826H46.826a.826.826,0,0,0-.826.826V53.621a.826.826,0,0,0,.826.826H65.009a.826.826,0,0,0,.826-.826V50.315A.826.826,0,0,0,65.009,49.488Zm-12.4-19.009a.826.826,0,0,1,.826-.826H58.4a.826.826,0,0,1,.826.826v2.479H52.612Zm19.594,7.68L68.9,34.853a.826.826,0,0,0-1.17,0l-9.918,9.918a.826.826,0,0,0-.241.585v3.306a.826.826,0,0,0,.826.826H61.7a.826.826,0,0,0,.585-.241l9.918-9.918a.826.826,0,0,0,0-1.17ZM59.224,47.835V45.7l9.091-9.091,2.137,2.137-9.091,9.091Zm-3.306.826a.826.826,0,0,1-.826.826H51.785a.826.826,0,0,1,0-1.653h3.306A.826.826,0,0,1,55.918,48.662Zm0-4.959a.826.826,0,0,1-.826.826H51.785a.826.826,0,0,1,0-1.653h3.306A.826.826,0,0,1,55.918,43.7Zm4.132-4.132H51.785a.826.826,0,0,1,0-1.653H60.05a.826.826,0,0,1,0,1.653Z" transform="translate(139.529 1390.876)"/>
        </g>
      </g>
    </g>
    <text id="Round_1_Idea_Submission_" data-name="Round 1 Idea Submission " transform="translate(373 1507)" fill="#0186e0" font-size="15" font-family="Roboto-Bold, Roboto" font-weight="700"><tspan x="0" y="14">Round 1 Idea Submission </tspan></text>
    <g id="Group_110832" data-name="Group 110832" transform="translate(233 8)">
      <text id="_20th_Nov_27th_Nov" data-name="20th Nov – 27th Nov" transform="translate(164 1530)" fill="#323232" font-size="15" font-family="Roboto-Regular, Roboto"><tspan x="0" y="14">20</tspan><tspan y="14" font-size="8.75" baseline-shift="4.999500274658203">th</tspan><tspan y="14" xml:space="preserve"> Nov – 27</tspan><tspan y="14" font-size="8.75" baseline-shift="4.999500274658203">th</tspan><tspan y="14" xml:space="preserve"> Nov</tspan></text>
      <text id="_2024-2" data-name="2024" transform="translate(215 1550)" fill="#323232" font-size="12" font-family="Roboto-Regular, Roboto"><tspan x="0" y="11">2024</tspan></text>
    </g>
    <g id="Group_110840" data-name="Group 110840" transform="translate(4 -1)">
      <g id="Mask_Group_101-2" data-name="Mask Group 101" transform="translate(227)" clip-path="url(#clip-path)">
        <circle id="Ellipse_190-2" data-name="Ellipse 190" cx="74" cy="74" r="74" transform="translate(158 1368)" fill="#e8e8e8"/>
      </g>
      <circle id="Ellipse_109-2" data-name="Ellipse 109" cx="55" cy="55" r="55" transform="translate(405 1386)" fill="#0186e0"/>
      <g id="Group_110837" data-name="Group 110837" transform="translate(263 9)">
        <circle id="Ellipse_108-2" data-name="Ellipse 108" cx="28" cy="28" r="28" transform="translate(169 1404)" fill="#fff"/>
        <g id="Group_110750" data-name="Group 110750" transform="translate(-230 -5)">
          <circle id="Ellipse_108-3" data-name="Ellipse 108" cx="25" cy="25" r="25" transform="translate(402 1412)" fill="#fff"/>
          <path id="round-table-svgrepo-com" d="M39.57,30.44a1.716,1.716,0,0,0-1.226,1.816A2.137,2.137,0,0,0,38.8,33.6l.332.393-.508.095a1.3,1.3,0,0,0-.833.562,3.334,3.334,0,0,0-.515,1.224A13.433,13.433,0,0,0,37,38.812h1.186L38.3,40.3c.461-.02.935-.034,1.416-.034q.762,0,1.484.041l.1-1.491h1.125a14.8,14.8,0,0,0-.21-2.974,3.292,3.292,0,0,0-.495-1.217,1.293,1.293,0,0,0-.9-.549L40.3,33.99l.325-.407a2.125,2.125,0,0,0,.44-1.328,1.642,1.642,0,0,0-1.362-1.816Zm-13,9.754a1.716,1.716,0,0,0-1.226,1.816,2.137,2.137,0,0,0,.454,1.348l.332.393-.508.095a1.3,1.3,0,0,0-.833.562,3.348,3.348,0,0,0-.515,1.226A13.433,13.433,0,0,0,24,48.568h1.186l.318,4.357a5.775,5.775,0,0,0,2.5,0l.291-4.357H29.42a14.8,14.8,0,0,0-.21-2.974,3.271,3.271,0,0,0-.493-1.22,1.29,1.29,0,0,0-.9-.549l-.518-.081.325-.407a2.11,2.11,0,0,0,.443-1.328A1.644,1.644,0,0,0,26.7,40.194Zm26.017,0a1.716,1.716,0,0,0-1.226,1.816,2.137,2.137,0,0,0,.454,1.348l.332.393-.508.095a1.3,1.3,0,0,0-.833.562,3.348,3.348,0,0,0-.515,1.226,13.433,13.433,0,0,0-.271,2.934H51.2l.318,4.357a5.763,5.763,0,0,0,2.5,0l.291-4.357h1.125a14.8,14.8,0,0,0-.21-2.974,3.306,3.306,0,0,0-.495-1.22,1.293,1.293,0,0,0-.9-.549l-.515-.081.325-.407a2.125,2.125,0,0,0,.44-1.328,1.642,1.642,0,0,0-1.362-1.816ZM39.712,41.481A19.9,19.9,0,0,0,33.4,42.4a5.956,5.956,0,0,0-1.782.928c-.386.318-.508.583-.508.8s.122.481.508.8a6.116,6.116,0,0,0,1.782.928,19.9,19.9,0,0,0,6.315.915,19.9,19.9,0,0,0,6.315-.915,6.116,6.116,0,0,0,1.782-.928c.386-.318.508-.583.508-.8s-.122-.481-.508-.8a5.956,5.956,0,0,0-1.782-.928,19.9,19.9,0,0,0-6.315-.915ZM32.6,46.847v3.1h1.22v-2.7c-.285-.081-.562-.163-.827-.257C32.855,46.949,32.727,46.9,32.6,46.847Zm14.228,0c-.129.054-.257.1-.393.149-.264.095-.542.176-.827.257v2.7h1.22ZM39.57,48.134a1.716,1.716,0,0,0-1.226,1.816A2.137,2.137,0,0,0,38.8,51.3l.332.393-.508.095a1.3,1.3,0,0,0-.833.562,3.348,3.348,0,0,0-.515,1.226A13.433,13.433,0,0,0,37,56.509h1.186l.318,4.357a5.763,5.763,0,0,0,2.5,0l.291-4.357h1.125a14.8,14.8,0,0,0-.21-2.974,3.306,3.306,0,0,0-.495-1.22,1.293,1.293,0,0,0-.9-.549l-.515-.081.325-.407a2.125,2.125,0,0,0,.44-1.328,1.642,1.642,0,0,0-1.362-1.816Z" transform="translate(387.88 1391.44)"/>
        </g>
      </g>
    </g>
    <g id="Group_110841" data-name="Group 110841" transform="translate(250 -1)">
      <g id="Group_110842" data-name="Group 110842">
        <g id="Mask_Group_101-3" data-name="Mask Group 101" transform="translate(227)" clip-path="url(#clip-path)">
          <circle id="Ellipse_190-3" data-name="Ellipse 190" cx="74" cy="74" r="74" transform="translate(158 1368)" fill="#e8e8e8"/>
        </g>
        <circle id="Ellipse_109-3" data-name="Ellipse 109" cx="55" cy="55" r="55" transform="translate(405 1386)" fill="#0186e0"/>
        <circle id="Ellipse_108-4" data-name="Ellipse 108" cx="28" cy="28" r="28" transform="translate(432 1413)" fill="#fff"/>
        <path id="workshop-svgrepo-com" d="M19,7s-5,7-12.5,7C4.5,14,1,15,1,19v4H12V19c0-2.5,3-1,7-8L17.5,9.5M3,5V2H23V16H20M11,1h4V3H11ZM6.5,14A3.5,3.5,0,1,0,3,10.5,3.5,3.5,0,0,0,6.5,14Z" transform="translate(448 1429)" fill="none" stroke="#000" stroke-width="2"/>
      </g>
    </g>
    <g id="Group_110843" data-name="Group 110843" transform="translate(497 8)">
      <text id="_7th_Dec_24th_Dec" data-name="7th Dec – 24th Dec" transform="translate(164 1530)" fill="#323232" font-size="15" font-family="Roboto-Regular, Roboto"><tspan x="0" y="14">7</tspan><tspan y="14" font-size="8.75" baseline-shift="4.999500274658203">th</tspan><tspan y="14" xml:space="preserve"> Dec – 24</tspan><tspan y="14" font-size="8.75" baseline-shift="4.999500274658203">th</tspan><tspan y="14" xml:space="preserve"> Dec</tspan></text>
      <text id="_2024-3" data-name="2024" transform="translate(204 1550)" fill="#323232" font-size="12" font-family="Roboto-Regular, Roboto"><tspan x="0" y="11">2024</tspan></text>
    </g>
    <g id="Group_110845" data-name="Group 110845" transform="translate(471 -1)">
      <g id="Group_110842-2" data-name="Group 110842">
        <g id="Mask_Group_101-4" data-name="Mask Group 101" transform="translate(227)" clip-path="url(#clip-path)">
          <circle id="Ellipse_190-4" data-name="Ellipse 190" cx="74" cy="74" r="74" transform="translate(158 1368)" fill="#e8e8e8"/>
        </g>
        <circle id="Ellipse_109-4" data-name="Ellipse 109" cx="55" cy="55" r="55" transform="translate(405 1386)" fill="#0186e0"/>
        <circle id="Ellipse_108-5" data-name="Ellipse 108" cx="28" cy="28" r="28" transform="translate(432 1413)" fill="#fff"/>
        <g id="Group_110756" data-name="Group 110756" transform="translate(-446 1)">
          <g id="Group_110750-2" data-name="Group 110750" transform="translate(476)">
            <circle id="Ellipse_108-6" data-name="Ellipse 108" cx="28" cy="28" r="28" transform="translate(402 1412)" fill="#fff"/>
          </g>
          <path id="workshop-home-improvement-store-tool-shor-repair-shop-svgrepo-com" d="M2,8.422a3.073,3.073,0,0,0,2.109,2.835V24.141H2v1.725H26.154V24.141H24.046V11.255a2.968,2.968,0,0,0,2.109-2.833V7.655H2Zm6.066-.063a3.17,3.17,0,0,0,3.041,3.016A3.043,3.043,0,0,0,14.1,8.359a2.951,2.951,0,0,0,3.016,3.014A3.141,3.141,0,0,0,20.12,8.359a3,3,0,0,0,2.2,2.89V24.141H5.834V11.259A3,3,0,0,0,8.066,8.359ZM26.154,6.984H2L5.067,3.917V2H23.183V3.917h-.016ZM17.9,21.213a1.137,1.137,0,0,1-.029.369l-1.057-.974-.953,1.04,1.069.97a1.163,1.163,0,0,1-.369.07,1.317,1.317,0,0,1-1.38-1.268,1.83,1.83,0,0,1,.041-.4l-.257-.245-1.538-1.405-2.6,2.868a.855.855,0,0,1-.684.356.824.824,0,0,1-.825-.825.8.8,0,0,1,.282-.626l2.7-2.8-1.633-1.5a1,1,0,0,1-.4.087,1.294,1.294,0,0,1-.953-.344,1.237,1.237,0,0,1-.427-.912,1.136,1.136,0,0,1,.029-.369l1.069.97.945-1.036-1.069-.97a1.1,1.1,0,0,1,.369-.07,1.294,1.294,0,0,1,.953.344,1.257,1.257,0,0,1,.427.924,1.111,1.111,0,0,1-.029.369l1.683,1.542L14.5,16.052l-1.84-1.621,1.67-1.9,4.729,4.162-1.67,1.9L15.5,16.927l-1.19,1.405,1.849,1.691a1.163,1.163,0,0,1,.369-.07,1.294,1.294,0,0,1,.953.344A1.208,1.208,0,0,1,17.9,21.213Z" transform="translate(892 1426)"/>
        </g>
      </g>
    </g>
    <g id="Group_110847" data-name="Group 110847" transform="translate(-13)">
      <text id="Advanced_Workshop_" data-name="Advanced Workshop " transform="translate(881 1507)" fill="#0186e0" font-size="15" font-family="Roboto-Bold, Roboto" font-weight="700"><tspan x="0" y="14">Advanced Workshop </tspan></text>
      <g id="Group_110846" data-name="Group 110846" transform="translate(724 8)">
        <text id="_26th_Dec_17th_Jan" data-name="26th Dec – 17th Jan" transform="translate(164 1530)" fill="#323232" font-size="15" font-family="Roboto-Regular, Roboto"><tspan x="0" y="14">26</tspan><tspan y="14" font-size="8.75" baseline-shift="4.999500274658203">th</tspan><tspan y="14" xml:space="preserve"> Dec – 17</tspan><tspan y="14" font-size="8.75" baseline-shift="4.999500274658203">th</tspan><tspan y="14" xml:space="preserve"> Jan</tspan></text>
        <text id="_2024_-_2025" data-name="2024 - 2025" transform="translate(195 1550)" fill="#323232" font-size="12" font-family="Roboto-Regular, Roboto"><tspan x="0" y="11">2024 - 2025</tspan></text>
      </g>
    </g>
    <g id="Group_110848" data-name="Group 110848" transform="translate(665 -1)">
      <g id="Group_110842-3" data-name="Group 110842">
        <g id="Mask_Group_101-5" data-name="Mask Group 101" transform="translate(227)" clip-path="url(#clip-path)">
          <circle id="Ellipse_190-5" data-name="Ellipse 190" cx="74" cy="74" r="74" transform="translate(158 1368)" fill="#e8e8e8"/>
        </g>
        <circle id="Ellipse_109-5" data-name="Ellipse 109" cx="55" cy="55" r="55" transform="translate(405 1386)" fill="#0186e0"/>
        <circle id="Ellipse_108-7" data-name="Ellipse 108" cx="28" cy="28" r="28" transform="translate(432 1413)" fill="#fff"/>
        <g id="Group_110756-2" data-name="Group 110756" transform="translate(-446 1)">
          <g id="Group_110750-3" data-name="Group 110750" transform="translate(476)">
            <circle id="Ellipse_108-8" data-name="Ellipse 108" cx="28" cy="28" r="28" transform="translate(402 1412)" fill="#fff"/>
          </g>
          <path id="tick-svgrepo-com_5_" data-name="tick-svgrepo-com (5)" d="M290.272,322.063l-3.263-3.263-13.941,13.936-5.805-5.8L264,330.2l9.068,9.068Z" transform="translate(631.864 1110.967)"/>
        </g>
      </g>
    </g>
    <g id="Group_110849" data-name="Group 110849" transform="translate(191)">
      <g id="Group_110850" data-name="Group 110850">
        <text id="Pitch_Day" data-name="Pitch Day" transform="translate(916 1507)" fill="#0186e0" font-size="15" font-family="Roboto-Bold, Roboto" font-weight="700"><tspan x="0" y="14">Pitch Day</tspan></text>
        <text id="Last_week_of_Jan" data-name="Last week of Jan" transform="translate(885 1538)" fill="#323232" font-size="15" font-family="Roboto-Regular, Roboto"><tspan x="0" y="14">Last week of Jan</tspan></text>
        <text id="_2025" data-name="2025" transform="translate(934 1558)" fill="#323232" font-size="12" font-family="Roboto-Regular, Roboto"><tspan x="0" y="11">2025</tspan></text>
      </g>
    </g>
  </g>
</svg>
