<svg xmlns="http://www.w3.org/2000/svg" xmlns:xlink="http://www.w3.org/1999/xlink" width="194" height="135" viewBox="0 0 194 135">
  <defs>
    <clipPath id="clip-path">
      <rect id="Rectangle_21835" data-name="Rectangle 21835" width="194" height="86" transform="translate(128 1361)" fill="#fff" stroke="#707070" stroke-width="1"/>
    </clipPath>
  </defs>
  <g id="Group_110840" data-name="Group 110840" transform="translate(-355 -1361)">
    <g id="Mask_Group_101" data-name="Mask Group 101" transform="translate(227)" clip-path="url(#clip-path)">
      <circle id="Ellipse_190" data-name="Ellipse 190" cx="74" cy="74" r="74" transform="translate(158 1368)" fill="#e8e8e8"/>
    </g>
    <circle id="Ellipse_109" data-name="Ellipse 109" cx="55" cy="55" r="55" transform="translate(405 1386)" fill="#0186e0"/>
    <g id="Group_110837" data-name="Group 110837" transform="translate(263 9)">
      <circle id="Ellipse_108" data-name="Ellipse 108" cx="28" cy="28" r="28" transform="translate(169 1404)" fill="#fff"/>
      <g id="Group_110750" data-name="Group 110750" transform="translate(-230 -5)">
        <circle id="Ellipse_108-2" data-name="Ellipse 108" cx="25" cy="25" r="25" transform="translate(402 1412)" fill="#fff"/>
        <path id="round-table-svgrepo-com" d="M39.57,30.44a1.716,1.716,0,0,0-1.226,1.816A2.137,2.137,0,0,0,38.8,33.6l.332.393-.508.095a1.3,1.3,0,0,0-.833.562,3.334,3.334,0,0,0-.515,1.224A13.433,13.433,0,0,0,37,38.812h1.186L38.3,40.3c.461-.02.935-.034,1.416-.034q.762,0,1.484.041l.1-1.491h1.125a14.8,14.8,0,0,0-.21-2.974,3.292,3.292,0,0,0-.495-1.217,1.293,1.293,0,0,0-.9-.549L40.3,33.99l.325-.407a2.125,2.125,0,0,0,.44-1.328,1.642,1.642,0,0,0-1.362-1.816Zm-13,9.754a1.716,1.716,0,0,0-1.226,1.816,2.137,2.137,0,0,0,.454,1.348l.332.393-.508.095a1.3,1.3,0,0,0-.833.562,3.348,3.348,0,0,0-.515,1.226A13.433,13.433,0,0,0,24,48.568h1.186l.318,4.357a5.775,5.775,0,0,0,2.5,0l.291-4.357H29.42a14.8,14.8,0,0,0-.21-2.974,3.271,3.271,0,0,0-.493-1.22,1.29,1.29,0,0,0-.9-.549l-.518-.081.325-.407a2.11,2.11,0,0,0,.443-1.328A1.644,1.644,0,0,0,26.7,40.194Zm26.017,0a1.716,1.716,0,0,0-1.226,1.816,2.137,2.137,0,0,0,.454,1.348l.332.393-.508.095a1.3,1.3,0,0,0-.833.562,3.348,3.348,0,0,0-.515,1.226,13.433,13.433,0,0,0-.271,2.934H51.2l.318,4.357a5.763,5.763,0,0,0,2.5,0l.291-4.357h1.125a14.8,14.8,0,0,0-.21-2.974,3.306,3.306,0,0,0-.495-1.22,1.293,1.293,0,0,0-.9-.549l-.515-.081.325-.407a2.125,2.125,0,0,0,.44-1.328,1.642,1.642,0,0,0-1.362-1.816ZM39.712,41.481A19.9,19.9,0,0,0,33.4,42.4a5.956,5.956,0,0,0-1.782.928c-.386.318-.508.583-.508.8s.122.481.508.8a6.116,6.116,0,0,0,1.782.928,19.9,19.9,0,0,0,6.315.915,19.9,19.9,0,0,0,6.315-.915,6.116,6.116,0,0,0,1.782-.928c.386-.318.508-.583.508-.8s-.122-.481-.508-.8a5.956,5.956,0,0,0-1.782-.928,19.9,19.9,0,0,0-6.315-.915ZM32.6,46.847v3.1h1.22v-2.7c-.285-.081-.562-.163-.827-.257C32.855,46.949,32.727,46.9,32.6,46.847Zm14.228,0c-.129.054-.257.1-.393.149-.264.095-.542.176-.827.257v2.7h1.22ZM39.57,48.134a1.716,1.716,0,0,0-1.226,1.816A2.137,2.137,0,0,0,38.8,51.3l.332.393-.508.095a1.3,1.3,0,0,0-.833.562,3.348,3.348,0,0,0-.515,1.226A13.433,13.433,0,0,0,37,56.509h1.186l.318,4.357a5.763,5.763,0,0,0,2.5,0l.291-4.357h1.125a14.8,14.8,0,0,0-.21-2.974,3.306,3.306,0,0,0-.495-1.22,1.293,1.293,0,0,0-.9-.549l-.515-.081.325-.407a2.125,2.125,0,0,0,.44-1.328,1.642,1.642,0,0,0-1.362-1.816Z" transform="translate(387.88 1391.44)"/>
      </g>
    </g>
  </g>
</svg>
