<svg xmlns="http://www.w3.org/2000/svg" width="39.5" height="39.5" viewBox="0 0 39.5 39.5">
  <g id="Icons" opacity="0.28">
    <g id="Color-">
      <path id="Twitter" d="M339.5,168.676a13.855,13.855,0,0,1-4.654,1.569,9.9,9.9,0,0,0,3.564-5.514,14.53,14.53,0,0,1-5.15,2.416A7.473,7.473,0,0,0,327.346,164c-4.473,0-8.1,4.464-8.1,9.972a12.122,12.122,0,0,0,.209,2.27c-6.736-.417-12.706-4.382-16.705-10.422a11.769,11.769,0,0,0-1.1,5.018,10.733,10.733,0,0,0,3.605,8.3,6.993,6.993,0,0,1-3.673-1.244v.122c0,4.833,2.794,8.865,6.5,9.777a6.531,6.531,0,0,1-2.135.352,6.631,6.631,0,0,1-1.526-.177c1.032,3.96,4.022,6.844,7.57,6.921a14.454,14.454,0,0,1-10.064,4.271,13.615,13.615,0,0,1-1.934-.137,19.988,19.988,0,0,0,12.423,4.476c14.907,0,23.057-15.193,23.057-28.371,0-.434-.007-.867-.021-1.292a18.975,18.975,0,0,0,4.041-5.162" transform="translate(-300 -164)" fill="#fff" fill-rule="evenodd"/>
    </g>
  </g>
</svg>
