<svg xmlns="http://www.w3.org/2000/svg" width="94.8" height="110.953" viewBox="0 0 94.8 110.953">
  <g id="user-profile-svgrepo-com" transform="translate(-28.574)">
    <path id="Path_17420" data-name="Path 17420" d="M167.979,150.488a11.146,11.146,0,1,0-11.146-11.146A11.167,11.167,0,0,0,167.979,150.488Z" transform="translate(-92.006 -91.96)" fill="#ffc10d"/>
    <path id="Path_17421" data-name="Path 17421" d="M134.938,288.065l-8.022,14.052a3.074,3.074,0,0,1-5.354,0l-8.022-14.052a28.308,28.308,0,0,0-17.67,23.371h56.7A28.236,28.236,0,0,0,134.938,288.065Z" transform="translate(-48.275 -206.641)" fill="#56ace0"/>
    <g id="Group_110776" data-name="Group 110776" transform="translate(28.574)">
      <path id="Path_17422" data-name="Path 17422" d="M109.523,13.906A47.391,47.391,0,0,0,28.574,47.4,47.037,47.037,0,0,0,42.443,80.949a3.088,3.088,0,1,0,4.367-4.367,41.315,41.315,0,0,1,1.717-60.008A41.243,41.243,0,0,1,117.2,47.419,40.975,40.975,0,0,1,105.137,76.6a3.088,3.088,0,0,0,4.367,4.367,47.49,47.49,0,0,0,.018-67.062Z" transform="translate(-28.574)" fill="#194f82"/>
      <path id="Path_17423" data-name="Path 17423" d="M133.118,56.4a34.425,34.425,0,0,0-54.271,7.419,34.077,34.077,0,0,0,5.7,41.077,3.088,3.088,0,1,0,4.367-4.367,28.149,28.149,0,1,1,39.817,0,3.1,3.1,0,0,0,4.386,4.385,34.3,34.3,0,0,0,0-48.514Z" transform="translate(-61.433 -33.248)" fill="#194f82"/>
      <path id="Path_17424" data-name="Path 17424" d="M152.351,106.473a17.3,17.3,0,1,0,17.3,17.3A17.316,17.316,0,0,0,152.351,106.473Zm0,28.469A11.146,11.146,0,1,1,163.5,123.8,11.167,11.167,0,0,1,152.351,134.942Z" transform="translate(-104.951 -76.377)" fill="#194f82"/>
      <path id="Path_17425" data-name="Path 17425" d="M118.428,263.973a3.105,3.105,0,0,0-3.582,1.425l-6.6,11.567-6.6-11.585a3.128,3.128,0,0,0-3.582-1.425h0a34.673,34.673,0,0,0-24.5,33.147v.018a3.084,3.084,0,0,0,3.088,3.088h63.206a3.084,3.084,0,0,0,3.088-3.088h0A34.7,34.7,0,0,0,118.428,263.973ZM79.89,294.05a28.308,28.308,0,0,1,17.67-23.371l8.022,14.052a3.074,3.074,0,0,0,5.354,0l8.022-14.052a28.308,28.308,0,0,1,17.67,23.371Z" transform="translate(-60.85 -189.255)" fill="#194f82"/>
    </g>
  </g>
</svg>
