<svg xmlns="http://www.w3.org/2000/svg" width="23.76" height="30.687" viewBox="0 0 23.76 30.687">
  <g id="Group_110040" data-name="Group 110040" transform="translate(-116.231 -180.062)">
    <g id="Group_109983" data-name="Group 109983" transform="translate(116.231 180.062)">
      <g id="Group_109982" data-name="Group 109982">
        <path id="Path_17401" data-name="Path 17401" d="M9.415,1.607A6.3,6.3,0,1,1,4.961,3.452,6.28,6.28,0,0,1,9.415,1.607Z" transform="translate(2.464 -1.607)" fill="#25A7FF"/>
        <path id="Path_17402" data-name="Path 17402" d="M7.1,15.559H2.656v0H2.641a.472.472,0,0,1-.457-.486c.01-.3.017-.587.024-.887A20.828,20.828,0,0,1,2.7,9.276,5.633,5.633,0,0,1,4.944,6.12a18.748,18.748,0,0,1,5.307-2.38.472.472,0,0,1,.442.057,5.8,5.8,0,0,0,1.6.8,5.826,5.826,0,0,0,1.772.272A5.827,5.827,0,0,0,15.837,4.6a5.8,5.8,0,0,0,1.6-.8h0a.471.471,0,0,1,.4-.07,15.192,15.192,0,0,1,5.651,2.543,5.929,5.929,0,0,1,2.084,3.621,25.669,25.669,0,0,1,.346,4.306c.007.279.014.553.023.837a.474.474,0,0,1-.47.528H21.028v-.842a1.955,1.955,0,0,0-1.191-1.8,1.955,1.955,0,0,0-.427-2.112l-.842-.842a1.955,1.955,0,0,0-2.112-.427,1.955,1.955,0,0,0-1.8-1.191H13.468a1.955,1.955,0,0,0-1.8,1.191,1.955,1.955,0,0,0-2.112.427l-.842.842a1.955,1.955,0,0,0-.427,2.112,1.955,1.955,0,0,0-1.191,1.8v.842Z" transform="translate(-2.185 8.883)" fill="#25A7FF"/>
        <path id="Path_17403" data-name="Path 17403" d="M3.084,11.647A1.479,1.479,0,0,0,4.56,13.123h.013l-.009.009a1.479,1.479,0,0,0,0,2.088l.842.842a1.479,1.479,0,0,0,2.088,0l.009-.009v.013a1.479,1.479,0,0,0,1.476,1.476H10.17a1.479,1.479,0,0,0,1.476-1.476v-.013l.009.009a1.479,1.479,0,0,0,2.088,0l.842-.842a1.479,1.479,0,0,0,0-2.088l-.009-.009h.013a1.479,1.479,0,0,0,1.476-1.476V10.456A1.479,1.479,0,0,0,14.589,8.98h-.013l.009-.009a1.479,1.479,0,0,0,0-2.088l-.842-.842a1.479,1.479,0,0,0-2.088,0l-.009.009V6.037A1.479,1.479,0,0,0,10.17,4.561H8.979A1.479,1.479,0,0,0,7.5,6.037V6.05l-.009-.009a1.479,1.479,0,0,0-2.088,0l-.842.842a1.479,1.479,0,0,0,0,2.088l.009.009H4.56a1.479,1.479,0,0,0-1.476,1.476Zm8.316,1a2.581,2.581,0,1,1,.756-1.825A2.573,2.573,0,0,1,11.4,12.649Z" transform="translate(2.305 13.145)" fill="#25A7FF" fill-rule="evenodd"/>
      </g>
    </g>
  </g>
</svg>
